<svg width="24" height="24" viewBox="0 0 24 24" fill="none" xmlns="http://www.w3.org/2000/svg">
<path fill-rule="evenodd" clip-rule="evenodd" d="M5.75 2C5.75 1.58579 6.08579 1.25 6.5 1.25H9.5C9.91421 1.25 10.25 1.58579 10.25 2V4.77778C10.25 5.19199 9.91421 5.52778 9.5 5.52778C9.08579 5.52778 8.75 5.19199 8.75 4.77778V2.75H7.25V7C7.25 7.41421 6.91421 7.75 6.5 7.75C6.08579 7.75 5.75 7.41421 5.75 7V2Z" fill="#969BA0"/>
<path fill-rule="evenodd" clip-rule="evenodd" d="M13.75 2C13.75 1.58579 14.0858 1.25 14.5 1.25H17.5C17.9142 1.25 18.25 1.58579 18.25 2V7C18.25 7.41421 17.9142 7.75 17.5 7.75C17.0858 7.75 16.75 7.41421 16.75 7V2.75H15.25V4.77778C15.25 5.19199 14.9142 5.52778 14.5 5.52778C14.0858 5.52778 13.75 5.19199 13.75 4.77778V2Z" fill="#969BA0"/>
<path fill-rule="evenodd" clip-rule="evenodd" d="M10.5 5.75C8.15281 5.75 6.25 7.65281 6.25 10V20C6.25 20.6903 6.80966 21.25 7.5 21.25H16.5C17.1903 21.25 17.75 20.6903 17.75 20V10C17.75 7.65281 15.8472 5.75 13.5 5.75H10.5ZM4.75 10C4.75 6.82439 7.32439 4.25 10.5 4.25H13.5C16.6756 4.25 19.25 6.82439 19.25 10V20C19.25 21.5188 18.0188 22.75 16.5 22.75H7.5C5.98124 22.75 4.75 21.5188 4.75 20V10Z" fill="#969BA0"/>
<path fill-rule="evenodd" clip-rule="evenodd" d="M1.75 14.5C1.75 14.0858 2.08579 13.75 2.5 13.75H5.5C5.91421 13.75 6.25 14.0858 6.25 14.5C6.25 14.9142 5.91421 15.25 5.5 15.25H3.25V18.75H5.5C5.91421 18.75 6.25 19.0858 6.25 19.5C6.25 19.9142 5.91421 20.25 5.5 20.25H2.5C2.08579 20.25 1.75 19.9142 1.75 19.5V14.5Z" fill="#969BA0"/>
<path fill-rule="evenodd" clip-rule="evenodd" d="M17.75 14.5C17.75 14.0858 18.0858 13.75 18.5 13.75H21.5C21.9142 13.75 22.25 14.0858 22.25 14.5V19.5C22.25 19.9142 21.9142 20.25 21.5 20.25H18.5C18.0858 20.25 17.75 19.9142 17.75 19.5C17.75 19.0858 18.0858 18.75 18.5 18.75H20.75V15.25H18.5C18.0858 15.25 17.75 14.9142 17.75 14.5Z" fill="#969BA0"/>
<path fill-rule="evenodd" clip-rule="evenodd" d="M14 10.75C14.4142 10.75 14.75 11.0858 14.75 11.5V13.5C14.75 13.9142 14.4142 14.25 14 14.25C13.5858 14.25 13.25 13.9142 13.25 13.5V11.5C13.25 11.0858 13.5858 10.75 14 10.75Z" fill="#969BA0"/>
<path fill-rule="evenodd" clip-rule="evenodd" d="M7.75 11.5C7.75 11.0858 8.08579 10.75 8.5 10.75H15.5C15.9142 10.75 16.25 11.0858 16.25 11.5C16.25 11.9142 15.9142 12.25 15.5 12.25H8.5C8.08579 12.25 7.75 11.9142 7.75 11.5Z" fill="#969BA0"/>
</svg>
