<svg width="24" height="24" viewBox="0 0 24 24" fill="none" xmlns="http://www.w3.org/2000/svg">
<path fill-rule="evenodd" clip-rule="evenodd" d="M3.5 3.75C3.08579 3.75 2.75 4.08579 2.75 4.5V19.5C2.75 19.9142 3.08579 20.25 3.5 20.25H20.5C20.9142 20.25 21.25 19.9142 21.25 19.5V4.5C21.25 4.08579 20.9142 3.75 20.5 3.75H3.5ZM1.25 4.5C1.25 3.25736 2.25736 2.25 3.5 2.25H20.5C21.7426 2.25 22.75 3.25736 22.75 4.5V19.5C22.75 20.7426 21.7426 21.75 20.5 21.75H3.5C2.25736 21.75 1.25 20.7426 1.25 19.5V4.5Z" fill="white"/>
<path fill-rule="evenodd" clip-rule="evenodd" d="M1.25 7C1.25 6.58579 1.58579 6.25 2 6.25H22C22.4142 6.25 22.75 6.58579 22.75 7C22.75 7.41421 22.4142 7.75 22 7.75H2C1.58579 7.75 1.25 7.41421 1.25 7Z" fill="white"/>
<path fill-rule="evenodd" clip-rule="evenodd" d="M9.25 12C9.25 11.5858 9.58579 11.25 10 11.25H18C18.4142 11.25 18.75 11.5858 18.75 12C18.75 12.4142 18.4142 12.75 18 12.75H10C9.58579 12.75 9.25 12.4142 9.25 12Z" fill="white"/>
<path fill-rule="evenodd" clip-rule="evenodd" d="M9.25 16C9.25 15.5858 9.58579 15.25 10 15.25H18C18.4142 15.25 18.75 15.5858 18.75 16C18.75 16.4142 18.4142 16.75 18 16.75H10C9.58579 16.75 9.25 16.4142 9.25 16Z" fill="white"/>
<path fill-rule="evenodd" clip-rule="evenodd" d="M5.25 12C5.25 11.5858 5.58579 11.25 6 11.25H7C7.41421 11.25 7.75 11.5858 7.75 12C7.75 12.4142 7.41421 12.75 7 12.75H6C5.58579 12.75 5.25 12.4142 5.25 12Z" fill="white"/>
<path fill-rule="evenodd" clip-rule="evenodd" d="M5.25 16C5.25 15.5858 5.58579 15.25 6 15.25H7C7.41421 15.25 7.75 15.5858 7.75 16C7.75 16.4142 7.41421 16.75 7 16.75H6C5.58579 16.75 5.25 16.4142 5.25 16Z" fill="white"/>
</svg>
