<svg width="24" height="24" viewBox="0 0 24 24" fill="none" xmlns="http://www.w3.org/2000/svg">
<path fill-rule="evenodd" clip-rule="evenodd" d="M5.69896 9.22812C5.84846 9.61254 5.65944 10.0452 5.27666 10.197L5.26832 10.2006C5.25819 10.205 5.23951 10.2133 5.21339 10.2258C5.16107 10.2509 5.07937 10.2929 4.97692 10.3543C4.77155 10.4773 4.48634 10.6763 4.18757 10.9712C3.59742 11.5538 2.93585 12.5275 2.74439 14.0911C2.69405 14.5023 2.31994 14.7947 1.9088 14.7444C1.49766 14.6941 1.20517 14.3199 1.25551 13.9088C1.49263 11.9724 2.33106 10.6961 3.13377 9.90372C3.53143 9.51116 3.91585 9.24136 4.20603 9.06752C4.35135 8.98046 4.47388 8.91695 4.56386 8.87372C4.60889 8.85209 4.64588 8.83549 4.67362 8.82351C4.6875 8.81751 4.69907 8.81267 4.7082 8.80893L4.72005 8.80414L4.72456 8.80235L4.72646 8.8016L4.72732 8.80126C4.72773 8.80111 4.72812 8.80095 4.99995 9.49996L4.72812 8.80095C5.11417 8.65082 5.54883 8.84207 5.69896 9.22812Z" fill="white"/>
<path fill-rule="evenodd" clip-rule="evenodd" d="M18.301 9.22812C18.4511 8.84208 18.8857 8.65082 19.2718 8.80095L19 9.49996C19.2718 8.80095 19.2722 8.80111 19.2726 8.80126L19.2734 8.8016L19.2753 8.80235L19.2799 8.80414L19.2917 8.80893C19.3008 8.81267 19.3124 8.81751 19.3263 8.82351C19.354 8.83549 19.391 8.85209 19.436 8.87372C19.526 8.91695 19.6486 8.98046 19.7939 9.06752C20.0841 9.24136 20.4685 9.51116 20.8661 9.90372C21.6689 10.6961 22.5073 11.9724 22.7444 13.9088C22.7947 14.3199 22.5023 14.6941 22.0911 14.7444C21.68 14.7947 21.3059 14.5023 21.2555 14.0911C21.0641 12.5275 20.4025 11.5538 19.8124 10.9712C19.5136 10.6763 19.2284 10.4773 19.023 10.3543C18.9205 10.2929 18.8388 10.2509 18.7865 10.2258C18.7604 10.2133 18.7417 10.205 18.7316 10.2006L18.7233 10.197C18.3405 10.0452 18.1515 9.61255 18.301 9.22812Z" fill="white"/>
<path fill-rule="evenodd" clip-rule="evenodd" d="M8.27127 9.32291C8.3691 8.92042 8.7747 8.67344 9.17719 8.77127L9.00005 9.50005C9.17719 8.77127 9.17759 8.77137 9.178 8.77147L9.17886 8.77168L9.18075 8.77214L9.18521 8.77326L9.19677 8.77623C9.20565 8.77855 9.21683 8.78156 9.2302 8.78532C9.25691 8.79284 9.2924 8.80335 9.33557 8.81735C9.42182 8.8453 9.53936 8.88731 9.67941 8.94722C9.95875 9.06671 10.3327 9.25958 10.7274 9.55809C11.5265 10.1623 12.393 11.1878 12.7347 12.8489C12.8181 13.2546 12.5569 13.6512 12.1512 13.7347C11.7455 13.8181 11.3489 13.5569 11.2654 13.1512C11.0071 11.8956 10.3737 11.1712 9.82269 10.7545C9.54245 10.5426 9.27886 10.4074 9.08945 10.3263C8.99512 10.286 8.92047 10.2596 8.87313 10.2443C8.8495 10.2366 8.83284 10.2318 8.82411 10.2293L8.81752 10.2275C8.41822 10.1274 8.17388 9.72361 8.27127 9.32291Z" fill="white"/>
<path fill-rule="evenodd" clip-rule="evenodd" d="M15.7288 9.32291C15.8262 9.72361 15.5819 10.1274 15.1826 10.2275L15.176 10.2293C15.1672 10.2318 15.1506 10.2366 15.127 10.2443C15.0796 10.2596 15.005 10.286 14.9106 10.3263C14.7212 10.4074 14.4576 10.5426 14.1774 10.7545C13.6264 11.1712 12.9929 11.8956 12.7346 13.1512C12.6512 13.5569 12.2546 13.8181 11.8489 13.7347C11.4432 13.6512 11.1819 13.2546 11.2654 12.8489C11.6071 11.1878 12.4736 10.1623 13.2727 9.55809C13.6674 9.25958 14.0413 9.06671 14.3207 8.94722C14.4607 8.88731 14.5783 8.8453 14.6645 8.81735C14.7077 8.80335 14.7432 8.79284 14.7699 8.78532C14.7832 8.78156 14.7944 8.77855 14.8033 8.77623L14.8149 8.77326L14.8193 8.77214L14.8212 8.77168L14.8221 8.77147C14.8225 8.77137 14.8229 8.77127 15 9.50005L14.8229 8.77127C15.2254 8.67344 15.631 8.92042 15.7288 9.32291Z" fill="white"/>
<path fill-rule="evenodd" clip-rule="evenodd" d="M10.1384 17.7371C10.1384 17.7371 10.1384 17.7371 10.1384 17.7371C10.1377 17.7373 10.1367 17.7375 10.1353 17.7378C10.1292 17.7391 10.116 17.7421 10.0966 17.7471C10.0578 17.7572 9.99443 17.7754 9.91251 17.805C9.74821 17.8644 9.51272 17.9681 9.25136 18.1411C8.73696 18.4815 8.10024 19.1033 7.70942 20.2432C7.57508 20.6351 7.14854 20.8438 6.75672 20.7095C6.36489 20.5751 6.15616 20.1486 6.2905 19.7568C6.79968 18.2717 7.66296 17.3935 8.42356 16.8902C8.7997 16.6413 9.14546 16.4872 9.40304 16.3942C9.53205 16.3476 9.63978 16.316 9.71931 16.2954C9.75911 16.285 9.79196 16.2774 9.81701 16.2719C9.82954 16.2692 9.84013 16.267 9.84868 16.2654L9.85997 16.2632L9.86444 16.2624L9.86638 16.262L9.86727 16.2618C9.8677 16.2618 9.86812 16.2617 9.99996 17L9.86812 16.2617C10.2759 16.1889 10.6655 16.4604 10.7383 16.8682C10.8107 17.2737 10.5425 17.6613 10.1384 17.7371Z" fill="white"/>
<path fill-rule="evenodd" clip-rule="evenodd" d="M13.2617 16.8682C13.3345 16.4604 13.7241 16.1889 14.1319 16.2617L14 17C14.1319 16.2617 14.1323 16.2618 14.1327 16.2618L14.1336 16.262L14.1356 16.2624L14.14 16.2632L14.1513 16.2654C14.1599 16.267 14.1705 16.2692 14.183 16.2719C14.208 16.2774 14.2409 16.285 14.2807 16.2954C14.3602 16.316 14.468 16.3476 14.597 16.3942C14.8545 16.4872 15.2003 16.6413 15.5764 16.8902C16.337 17.3935 17.2003 18.2717 17.7095 19.7568C17.8438 20.1486 17.6351 20.5751 17.2433 20.7095C16.8515 20.8438 16.4249 20.6351 16.2906 20.2432C15.8998 19.1033 15.263 18.4815 14.7486 18.1411C14.4873 17.9681 14.2518 17.8644 14.0875 17.805C14.0056 17.7754 13.9422 17.7572 13.9034 17.7471C13.884 17.7421 13.8708 17.7391 13.8647 17.7378M13.8616 17.7371C13.8616 17.7371 13.8616 17.7371 13.8616 17.7371L13.8616 17.7371Z" fill="white"/>
<path fill-rule="evenodd" clip-rule="evenodd" d="M12 13.75C11.0335 13.75 10.25 14.5335 10.25 15.5C10.25 16.4665 11.0335 17.25 12 17.25C12.9665 17.25 13.75 16.4665 13.75 15.5C13.75 14.5335 12.9665 13.75 12 13.75ZM8.75 15.5C8.75 13.7051 10.2051 12.25 12 12.25C13.7949 12.25 15.25 13.7051 15.25 15.5C15.25 17.2949 13.7949 18.75 12 18.75C10.2051 18.75 8.75 17.2949 8.75 15.5Z" fill="white"/>
<path fill-rule="evenodd" clip-rule="evenodd" d="M17 4.75C15.7574 4.75 14.75 5.75736 14.75 7C14.75 8.24264 15.7574 9.25 17 9.25C18.2426 9.25 19.25 8.24264 19.25 7C19.25 5.75736 18.2426 4.75 17 4.75ZM13.25 7C13.25 4.92893 14.9289 3.25 17 3.25C19.0711 3.25 20.75 4.92893 20.75 7C20.75 9.07107 19.0711 10.75 17 10.75C14.9289 10.75 13.25 9.07107 13.25 7Z" fill="white"/>
<path fill-rule="evenodd" clip-rule="evenodd" d="M7 4.75C5.75736 4.75 4.75 5.75736 4.75 7C4.75 8.24264 5.75736 9.25 7 9.25C8.24264 9.25 9.25 8.24264 9.25 7C9.25 5.75736 8.24264 4.75 7 4.75ZM3.25 7C3.25 4.92893 4.92893 3.25 7 3.25C9.07107 3.25 10.75 4.92893 10.75 7C10.75 9.07107 9.07107 10.75 7 10.75C4.92893 10.75 3.25 9.07107 3.25 7Z" fill="white"/>
</svg>
