<svg width="24" height="24" viewBox="0 0 24 24" fill="none" xmlns="http://www.w3.org/2000/svg">
<path d="M20 19C20 19.5523 19.5523 20 19 20H15C14.4477 20 14 19.5523 14 19V17C14 16.4477 14.4477 16 15 16H19C19.5523 16 20 16.4477 20 17V19ZM10 19C10 19.5523 9.55229 20 9 20H5C4.44771 20 4 19.5523 4 19V13C4 12.4477 4.44772 12 5 12H9C9.55228 12 10 12.4477 10 13V19ZM20 11C20 11.5523 19.5523 12 19 12H15C14.4477 12 14 11.5523 14 11V5C14 4.44772 14.4477 4 15 4H19C19.5523 4 20 4.44772 20 5V11ZM10 7C10 7.55228 9.55228 8 9 8H5C4.44772 8 4 7.55228 4 7V5C4 4.44772 4.44772 4 5 4H9C9.55228 4 10 4.44772 10 5V7Z" stroke="white" stroke-width="2"/>
</svg>
